<?xml version="1.0" encoding="UTF-8" standalone="no"?>
<svg
   xmlns:dc="http://purl.org/dc/elements/1.1/"
   xmlns:cc="http://creativecommons.org/ns#"
   xmlns:rdf="http://www.w3.org/1999/02/22-rdf-syntax-ns#"
   xmlns:svg="http://www.w3.org/2000/svg"
   xmlns="http://www.w3.org/2000/svg"
   xmlns:sodipodi="http://sodipodi.sourceforge.net/DTD/sodipodi-0.dtd"
   xmlns:inkscape="http://www.inkscape.org/namespaces/inkscape"
   width="441.35815mm"
   height="441.35815mm"
   viewBox="0 0 441.35815 441.35815"
   version="1.1"
   id="svg8"
   inkscape:version="1.0.2 (e86c870879, 2021-01-15, custom)"
   sodipodi:docname="logo.svg"
   inkscape:export-filename="C:\Users\Franco-PC\Desktop\bitmap.png"
   inkscape:export-xdpi="110.454"
   inkscape:export-ydpi="110.454">
  <defs
     id="defs2" />
  <sodipodi:namedview
     id="base"
     pagecolor="#ffffff"
     bordercolor="#666666"
     borderopacity="1.0"
     inkscape:pageopacity="0.0"
     inkscape:pageshadow="2"
     inkscape:zoom="0.37781457"
     inkscape:cx="1061.2073"
     inkscape:cy="857.16068"
     inkscape:document-units="mm"
     inkscape:current-layer="layer1"
     inkscape:document-rotation="0"
     showgrid="false"
     inkscape:window-width="1920"
     inkscape:window-height="1027"
     inkscape:window-x="-8"
     inkscape:window-y="-8"
     inkscape:window-maximized="1"
     fit-margin-top="0"
     fit-margin-left="0"
     fit-margin-right="0"
     fit-margin-bottom="0">
    <inkscape:grid
       type="xygrid"
       id="grid833"
       originx="-28.029248"
       originy="-28.029248" />
  </sodipodi:namedview>
  <metadata
     id="metadata5">
    <rdf:RDF>
      <cc:Work
         rdf:about="">
        <dc:format>image/svg+xml</dc:format>
        <dc:type
           rdf:resource="http://purl.org/dc/dcmitype/StillImage" />
        <dc:title></dc:title>
      </cc:Work>
    </rdf:RDF>
  </metadata>
  <g
     inkscape:label="Layer 1"
     inkscape:groupmode="layer"
     id="layer1"
     transform="translate(-28.02925,-28.02925)">
    <rect
       style="fill:#000000;fill-opacity:1;stroke:#ffffff;stroke-width:10;stroke-linecap:round;stroke-miterlimit:4.30000019;stroke-dasharray:none;stroke-opacity:1"
       id="rect835"
       width="433.91666"
       height="433.91666"
       x="31.75"
       y="31.75"
       ry="48.809525"
       inkscape:export-xdpi="110.454"
       inkscape:export-ydpi="110.454" />
    <g
       aria-label="IP"
       id="text847"
       style="font-style:normal;font-weight:normal;font-size:282.222px;line-height:1.25;font-family:sans-serif;fill:#ffffff;fill-opacity:1;stroke:none;stroke-width:0.264583;stroke-opacity:1">
      <path
         d="m 129.78831,78.342475 h 53.05443 V 284.0834 h -53.05443 z"
         style="font-style:normal;font-variant:normal;font-weight:bold;font-stretch:normal;font-size:282.222px;font-family:sans-serif;-inkscape-font-specification:'sans-serif Bold';fill:#ffffff;fill-opacity:1;stroke:none;stroke-width:0.264583;stroke-opacity:1"
         id="path887" />
      <path
         d="m 234.79474,78.342475 h 88.05656 q 39.27406,0 60.22022,17.50107 21.08397,17.363265 21.08397,49.609335 0,32.38387 -21.08397,49.88494 -20.94616,17.36327 -60.22022,17.36327 h -35.00214 v 71.38231 h -53.05442 z m 53.05442,38.447235 v 57.46414 h 29.35219 q 15.43402,0 23.84004,-7.4414 8.40603,-7.5792 8.40603,-21.35957 0,-13.78037 -8.40603,-21.22177 -8.40602,-7.4414 -23.84004,-7.4414 z"
         style="font-style:normal;font-variant:normal;font-weight:bold;font-stretch:normal;font-size:282.222px;font-family:sans-serif;-inkscape-font-specification:'sans-serif Bold';fill:#ffffff;fill-opacity:1;stroke:none;stroke-width:0.264583;stroke-opacity:1"
         id="path889" />
    </g>
    <g
       aria-label="CALC"
       id="text847-8"
       style="font-style:normal;font-weight:normal;font-size:123.472px;line-height:1.25;font-family:sans-serif;fill:#ffffff;fill-opacity:1;stroke:none;stroke-width:0.264583">
      <path
         d="m 154.56696,418.58431 q -6.39064,3.3159 -13.32388,5.00399 -6.93325,1.6881 -14.46938,1.6881 -22.48782,0 -35.630835,-12.54013 -13.143016,-12.60041 -13.143016,-34.12361 0,-21.58348 13.143016,-34.12361 13.143015,-12.60041 35.630835,-12.60041 7.53613,0 14.46938,1.68809 6.93324,1.6881 13.32388,5.004 v 18.62932 q -6.45093,-4.40111 -12.72099,-6.45093 -6.27007,-2.04983 -13.20331,-2.04983 -12.41955,0 -19.53365,7.95815 -7.11411,7.95816 -7.11411,21.94522 0,13.92678 7.11411,21.88493 7.1141,7.95816 19.53365,7.95816 6.93324,0 13.20331,-2.04983 6.27006,-2.04983 12.72099,-6.45093 z"
         style="font-weight:bold;font-size:123.472px;fill:#ffffff;fill-opacity:1;stroke-width:0.264583"
         id="path892" />
      <path
         d="m 228.42106,407.12939 h -36.29401 l -5.72746,16.39863 h -23.33187 l 33.33985,-90.01158 h 27.67268 l 33.33985,90.01158 H 234.08823 Z M 197.9148,390.42932 h 24.65822 l -12.29896,-35.8117 z"
         style="font-weight:bold;font-size:123.472px;fill:#ffffff;fill-opacity:1;stroke-width:0.264583"
         id="path894" />
      <path
         d="m 269.35735,333.51644 h 23.21129 v 72.46746 h 40.7554 v 17.54412 h -63.96669 z"
         style="font-weight:bold;font-size:123.472px;fill:#ffffff;fill-opacity:1;stroke-width:0.264583"
         id="path896" />
      <path
         d="m 419.41681,418.58431 q -6.39064,3.3159 -13.32388,5.00399 -6.93324,1.6881 -14.46938,1.6881 -22.48782,0 -35.63083,-12.54013 -13.14302,-12.60041 -13.14302,-34.12361 0,-21.58348 13.14302,-34.12361 13.14301,-12.60041 35.63083,-12.60041 7.53614,0 14.46938,1.68809 6.93324,1.6881 13.32388,5.004 v 18.62932 q -6.45093,-4.40111 -12.72099,-6.45093 -6.27006,-2.04983 -13.2033,-2.04983 -12.41955,0 -19.53366,7.95815 -7.11411,7.95816 -7.11411,21.94522 0,13.92678 7.11411,21.88493 7.11411,7.95816 19.53366,7.95816 6.93324,0 13.2033,-2.04983 6.27006,-2.04983 12.72099,-6.45093 z"
         style="font-weight:bold;font-size:123.472px;fill:#ffffff;fill-opacity:1;stroke-width:0.264583"
         id="path898" />
    </g>
  </g>
</svg>
